<svg width="260" height="19" viewBox="0 0 260 19" fill="none" xmlns="http://www.w3.org/2000/svg">
<path d="M2 10C54.6688 10 107.34 9.97627 160 8.88889C185.685 8.35852 211.596 6 237.278 6C288.908 6 134.009 6.52828 82.3889 5.5C70.3808 5.2608 34.434 3 46.4444 3C113.074 3 312.963 3 246.333 3C184.708 3 122.317 2 61 2" stroke="#F78400" stroke-width="3" stroke-linecap="round"/>
<path d="M4 7H130" stroke="#F78400" stroke-width="3" stroke-linecap="round"/>
<path d="M163 3.99999C149.519 3.99999 136.037 3.99999 122.556 3.99999C119.235 3.99999 115.187 3.99999 121.389 3.99999C129.722 3.99999 138.056 3.99999 146.389 3.99999C147.809 3.99999 154.559 3.94322 149.222 3.99999C137.694 4.12263 126.199 4.99999 114.667 4.99999C93.8704 4.99999 156.259 4.99999 177.056 4.99999C179.832 4.99999 186.779 4.99999 179.333 4.99999C166.722 4.99999 154.111 4.99999 141.5 4.99999C137.87 4.99999 134.241 4.99999 130.611 4.99999C127.704 4.99999 136.426 4.99999 139.333 4.99999C155.852 4.99999 172.37 4.99999 188.889 4.99999C200.928 4.99999 185.842 4.99999 182.556 4.99999C168.444 4.99999 154.333 4.99999 140.222 4.99999C105.963 4.99999 208.741 4.99999 243 4.99999" stroke="#F78400" stroke-width="3" stroke-linecap="round"/>
<path d="M128 3C101.37 3 21.4815 3 48.1111 3C56.443 3 64.7802 2.9094 73.1111 3.05556C76.6391 3.11745 86.7444 3.26728 83.5556 4.77778C79.5663 6.66741 69.8057 5.84195 65.2222 6C59.6738 6.19133 52.708 6 46.7778 6C40.6531 6 30.7327 6 43.7778 6C52.2593 6 60.7407 6 69.2222 6C76.0067 6 62.1195 6.85134 61.8889 6.88889C54.8087 8.04148 44.912 8.91639 38.8889 13.3333C37.7323 14.1815 46.8108 14.7319 47.5556 14.7778C71.5653 16.2553 22.6891 12 45.1111 12C57.1061 12 71.9177 12.1565 90 13C103.955 13.651 117.867 14 131.833 14C156.706 14 82.0948 15 57.2222 15C51.1481 15 45.0741 15 39 15C0.592596 15 115.815 15 154.222 15C160.259 15 166.296 15 172.333 15C176.005 15 165.001 14.601 161.333 14.4444C136.909 13.402 112.498 13 88.0556 13C56.4657 13 151.188 10.1816 182.778 10C186.926 9.97617 191.074 10 195.222 10C209.593 10 166.481 10 152.111 10C132.296 10 112.481 10 92.6667 10C56.3704 10 165.259 10 201.556 10C209.204 10 216.852 10 224.5 10C228.026 10 228.134 10 224.111 10C195.222 10 166.333 10 137.444 10C111.815 10 239.963 10 214.333 10C191.296 10 168.259 10 145.222 10C144.643 10 139.934 9.9233 142.778 10.0556C158.746 10.7982 174.705 11.6914 190.667 12.5556C192.816 12.6719 203.501 12.6446 195.222 13.2222C185.489 13.9013 175.694 14.3135 166 15.4444C151.414 17.1462 179.977 16 181.111 16C189.333 16 197.556 16 205.778 16C209.611 16 198.111 16 194.278 16C183.748 16 172.975 16.6707 162.444 15.9444C159.384 15.7334 156.299 15.2911 153.556 14C152.461 13.4847 148.941 13 152.444 13C161.37 13 170.296 13 179.222 13C181.333 13 187.667 13 185.556 13C177.926 13 170.296 13 162.667 13C153.111 13 143.556 13 134 13C123.202 13 177.087 11.9776 166.333 11C149.14 9.43698 132.479 8 115.167 8C106.926 8 98.6852 8 90.4444 8C88.7407 8 83.6296 8 85.3333 8C102.852 8 120.37 8 137.889 8C154.148 8 170.407 8 186.667 8C195.722 8 168.556 8 159.5 8C141.519 8 123.537 8 105.556 8C100.668 8 95.4277 7.56394 91 9.77778C86.9403 11.8076 95.378 13.3458 96.1111 13.4444C108.363 15.0937 121.176 14 133.5 14C153.148 14 172.796 14 192.444 14C204.26 14 239.648 12 227.833 12C221.185 12 214.537 12 207.889 12C203.833 12 199.778 12 195.722 12C192.994 12 191.494 12 195.333 12C204.852 12 233.407 12 223.889 12C203.956 12 184.281 15.4344 164.389 15.9444C146.199 16.4109 142.624 17 106 17" stroke="#F78400" stroke-width="3" stroke-linecap="round"/>
<path d="M53 16C42.1863 14.7088 31.8209 14.6365 21 14C12.3788 13.4929 38.2528 13 46.8889 13C57.2079 13 44.4492 13 41 13" stroke="#F78400" stroke-width="3" stroke-linecap="round"/>
<path d="M51 17H111" stroke="#F78400" stroke-width="3" stroke-linecap="round"/>
</svg>
